<?xml version="1.0" encoding="UTF-8" standalone="no"?>
<!-- Generator: Adobe Illustrator 12.0.0, SVG Export Plug-In . SVG Version: 6.00 Build 51448)  -->
<svg
   xmlns:dc="http://purl.org/dc/elements/1.1/"
   xmlns:cc="http://web.resource.org/cc/"
   xmlns:rdf="http://www.w3.org/1999/02/22-rdf-syntax-ns#"
   xmlns:svg="http://www.w3.org/2000/svg"
   xmlns="http://www.w3.org/2000/svg"
   xmlns:sodipodi="http://sodipodi.sourceforge.net/DTD/sodipodi-0.dtd"
   xmlns:inkscape="http://www.inkscape.org/namespaces/inkscape"
   version="1.1"
   id="Layer_1"
   width="487.906"
   height="198.508"
   viewBox="0 0 487.906 198.508"
   overflow="visible"
   enable-background="new 0 0 487.906 198.508"
   xml:space="preserve"
   sodipodi:version="0.32"
   inkscape:version="0.44"
   sodipodi:docname="Candara_sample.svg"
   sodipodi:docbase="D:\tmp"><metadata
   id="metadata180"><rdf:RDF><cc:Work
       rdf:about=""><dc:format>image/svg+xml</dc:format><dc:type
         rdf:resource="http://purl.org/dc/dcmitype/StillImage" /></cc:Work></rdf:RDF></metadata><defs
   id="defs178" /><sodipodi:namedview
   inkscape:window-height="712"
   inkscape:window-width="1024"
   inkscape:pageshadow="2"
   inkscape:pageopacity="0.0"
   guidetolerance="10.0"
   gridtolerance="10.0"
   objecttolerance="10.0"
   borderopacity="1.0"
   bordercolor="#666666"
   pagecolor="#ffffff"
   id="base"
   inkscape:zoom="1.4633966"
   inkscape:cx="243.953"
   inkscape:cy="99.253998"
   inkscape:window-x="-4"
   inkscape:window-y="-4"
   inkscape:current-layer="Layer_1" />
<g
   id="g3">
	<path
   d="M 32.53125 4.9375 L 27.90625 5.1875 C 28.37825 9.0774999 28.625 14.4445 28.625 21.3125 C 28.625 29.1575 28.552249 35.23425 28.40625 39.53125 L 32.6875 39.53125 C 32.5575 36.40625 32.500002 30.387 32.5 21.5 C 34.631 19.823 36.902751 19 39.34375 19 C 41.08475 19 42.4525 19.456 43.4375 20.375 C 44.4215 21.294 44.937499 23.0505 44.9375 25.6875 C 44.9375 30.6185 44.733001 35.251249 44.375 39.53125 L 48.8125 39.53125 C 48.7475 34.14425 48.717751 30.2815 48.71875 27.9375 C 48.71875 27.2545 48.748251 26.434249 48.78125 25.53125 C 48.81325 24.62825 48.843751 24.02875 48.84375 23.71875 C 48.84375 20.67575 48.09 18.556751 46.625 17.34375 C 45.16 16.13075 43.13525 15.53125 40.53125 15.53125 C 37.61825 15.53125 34.941002 16.601999 32.5 18.75 L 32.34375 18.75 C 32.34375 14.502 32.401252 9.9014998 32.53125 4.9375 z M 191.125 4.9375 L 186.4375 5.15625 C 186.9095 9.6162499 187.125 15.013501 187.125 21.3125 C 187.125 27.4975 187.0235 33.574249 186.8125 39.53125 L 191.125 39.53125 C 190.945 34.77825 190.84375 30.63925 190.84375 27.15625 L 191.03125 27.15625 C 191.86225 27.15625 193.88599 29.11 197.125 33 C 200.282 36.777 201.84375 38.962249 201.84375 39.53125 L 207.59375 39.53125 C 207.59375 38.99425 206.103 36.969749 203.125 33.46875 C 199.951 29.75775 197.36276 27.123749 195.34375 25.59375 L 195.34375 25.40625 C 197.32875 24.08825 199.51326 22.41 201.90625 20.375 C 204.46125 18.194 205.75 16.8335 205.75 16.3125 L 200.34375 16.3125 C 200.34375 16.8825 198.93375 18.53925 196.09375 21.28125 C 193.25375 24.02425 191.56825 25.406251 191.03125 25.40625 L 190.84375 25.40625 C 190.84375 15.26725 190.94501 8.4534997 191.125 4.9375 z M 156.0625 6.34375 C 155.0855 6.34375 154.303 6.6480001 153.75 7.25 C 153.196 7.853 152.9375 8.5620005 152.9375 9.375 C 152.9375 10.125 153.161 10.75225 153.625 11.28125 C 154.089 11.81025 154.7325 12.09375 155.5625 12.09375 C 156.5395 12.09375 157.30675 11.76725 157.84375 11.15625 C 158.38075 10.54525 158.65625 9.8300001 158.65625 9 C 158.65625 8.284 158.40251 7.6540002 157.9375 7.125 C 157.4735 6.597 156.8595 6.34375 156.0625 6.34375 z M 106.1875 7.0625 C 102.2325 7.0625 98.804999 8.4939999 95.875 11.375 C 92.571 14.647 90.90625 19.003251 90.90625 24.40625 C 90.90625 29.40325 92.483002 33.4105 95.625 36.4375 C 98.408 39.1075 101.708 40.437502 105.5 40.4375 C 109.585 40.4375 112.23175 40.944499 113.46875 41.9375 C 114.81875 43.0285 116.00625 45.805251 117.03125 50.28125 L 121.625 50.09375 C 120.697 45.82875 119.61175 42.92125 118.34375 41.40625 C 117.13875 39.97325 115.15625 39.136001 112.40625 38.875 L 112.40625 38.625 C 114.89725 37.258 116.87875 35.33375 118.34375 32.84375 C 119.97075 30.06075 120.78125 26.80475 120.78125 23.09375 C 120.78125 18.08075 119.2035 14.0735 116.0625 11.0625 C 113.2795 8.3935001 109.9795 7.0625 106.1875 7.0625 z M 233.4375 7.59375 C 232.6565 7.59375 231.38124 7.6072501 229.65625 7.65625 C 227.93125 7.70525 226.78775 7.7500002 226.21875 7.75 L 223.28125 7.75 C 223.50925 12.08 223.62499 17.0835 223.625 22.8125 C 223.625 28.8995 223.50925 34.48625 223.28125 39.53125 C 226.99225 39.62825 229.47999 39.65625 230.75 39.65625 C 235.323 39.65625 238.94149 38.833249 241.5625 37.15625 C 244.2475 35.43125 245.59374 33.001751 245.59375 29.84375 C 245.59375 25.51475 243.32326 22.938 238.78125 22.125 L 238.78125 21.875 C 241.98725 20.671 243.59374 18.23975 243.59375 14.59375 C 243.59375 9.9227501 240.2085 7.5937501 233.4375 7.59375 z M 0.125 7.71875 L 0 11.21875 C 4.3619999 11.02375 7.74725 10.9375 10.15625 10.9375 C 10.25325 14.1285 10.3125 18.076501 10.3125 22.8125 C 10.3125 28.3955 10.195 33.981249 10 39.53125 L 14.46875 39.53125 C 14.30575 33.70525 14.21875 28.118501 14.21875 22.8125 C 14.21875 18.0105 14.24825 14.0625 14.28125 10.9375 C 17.71525 10.9375 21.058251 11.0245 24.28125 11.1875 L 24.375 7.71875 L 0.125 7.71875 z M 105.5 10.46875 C 108.332 10.46875 110.77675 11.509 112.84375 13.625 C 115.23675 16.083 116.4375 19.425249 116.4375 23.65625 C 116.4375 27.70925 115.339 31.039752 113.125 33.59375 C 111.139 35.90575 108.8075 37.062499 106.1875 37.0625 C 103.3715 37.0625 100.92675 35.975751 98.84375 33.84375 C 96.43475 31.37075 95.25 28.028499 95.25 23.8125 C 95.25 19.7595 96.3485 16.46225 98.5625 13.90625 C 100.5645 11.61125 102.879 10.46875 105.5 10.46875 z M 232.65625 10.75 C 237.19725 10.75 239.46876 12.4435 239.46875 15.8125 C 239.46875 17.7985 238.66 19.187 237 20 C 235.535 20.733 233.19174 21.125001 229.96875 21.125 C 229.00875 21.125 228.1105 21.0955 227.3125 21.0625 C 227.3125 15.6095 227.255 12.297 227.125 11.125 C 228.541 10.881 230.37725 10.75 232.65625 10.75 z M 65.625 15.25 C 62.207 15.25 59.49575 16.530751 57.46875 19.09375 C 55.44175 21.65675 54.406251 24.733251 54.40625 28.28125 C 54.40625 31.60125 55.528001 34.407752 57.75 36.71875 C 59.972 39.03075 63.2055 40.187499 67.4375 40.1875 C 70.4485 40.1875 72.748753 39.853748 74.34375 39.21875 L 74.75 35.78125 C 72.585 36.38325 70.286503 36.6875 67.8125 36.6875 C 65.0455 36.6875 62.801 35.885249 61.125 34.28125 C 59.448 32.67825 58.537999 30.688501 58.375 28.3125 L 75.15625 28.03125 C 75.22125 26.82725 75.250003 25.871501 75.25 25.1875 C 75.25 22.2745 74.417249 19.886251 72.78125 18.03125 C 71.14525 16.17625 68.766 15.25 65.625 15.25 z M 280.1875 15.25 C 276.9485 15.25 274.15001 16.42125 271.75 18.78125 C 269.349 21.14125 268.12499 24.425999 268.125 28.625 C 268.125 32.385 269.23424 35.308001 271.40625 37.375 C 273.58025 39.443 276.1605 40.46875 279.1875 40.46875 C 282.4255 40.46875 285.26326 39.304752 287.65625 36.96875 C 290.04925 34.63375 291.24999 31.38575 291.25 27.21875 C 291.25 23.42675 290.164 20.468 288 18.375 C 285.835 16.284 283.21449 15.25 280.1875 15.25 z M 176.09375 15.53125 C 172.23575 15.53125 169.15651 16.77525 166.8125 19.28125 C 164.4685 21.78725 163.28125 24.798251 163.28125 28.28125 C 163.28125 31.56925 164.395 34.3605 166.625 36.6875 C 168.855 39.0145 172.06525 40.187499 176.28125 40.1875 C 178.49525 40.1875 180.27574 39.8115 181.59375 39.0625 L 181.84375 35.78125 C 179.67875 36.38425 177.972 36.686501 176.75 36.6875 C 173.772 36.6875 171.47175 35.820502 169.84375 34.0625 C 168.21575 32.3045 167.40626 30.105751 167.40625 27.46875 C 167.40625 25.04375 168.10075 23.017249 169.46875 21.40625 C 170.83675 19.79525 172.65676 18.999999 174.96875 19 C 176.72675 19 178.47849 19.3025 180.1875 19.9375 L 180.84375 16.09375 C 179.62375 15.70275 178.03076 15.53125 176.09375 15.53125 z M 261.53125 15.53125 C 259.18825 15.53125 257.133 16.81825 255.375 19.40625 L 255.1875 19.40625 C 255.1875 18.80425 255.02875 17.6035 254.71875 15.8125 L 250.4375 16.4375 C 251.2015 19.9695 251.59375 23.643001 251.59375 27.5 C 251.59375 30.349 251.4485 34.372249 251.1875 39.53125 L 255.53125 39.53125 C 255.43425 36.55325 255.375 31.299499 255.375 23.8125 C 256.286 20.8995 258.2515 19.4375 261.3125 19.4375 C 262.4025 19.4375 263.60499 19.71475 264.875 20.21875 L 265.96875 16.3125 C 264.24275 15.7755 262.76824 15.53125 261.53125 15.53125 z M 347.375 15.53125 C 344.624 15.53125 342.03399 16.60025 339.625 18.78125 L 339.4375 18.78125 L 338.96875 15.8125 L 334.65625 16.4375 C 335.37225 20.0185 335.75001 23.690999 335.75 27.5 C 335.75 29.974 335.61974 33.99725 335.34375 39.53125 L 339.78125 39.53125 C 339.71525 33.06925 339.68749 27.05 339.6875 21.5 C 341.6405 19.823 343.75049 18.999999 346.0625 19 C 347.9495 19 349.41949 19.456 350.4375 20.375 C 351.4535 21.295 351.9375 22.994 351.9375 25.5 C 351.9375 30.562 351.76323 35.251249 351.40625 39.53125 L 355.84375 39.53125 C 355.77875 34.14425 355.749 30.092999 355.75 27.375 C 355.75 27.066 355.77949 26.44325 355.8125 25.53125 C 355.8445 24.62025 355.87501 23.9975 355.875 23.6875 C 355.875 20.6285 355.10599 18.508501 353.625 17.3125 C 352.144 16.1165 350.07601 15.53125 347.375 15.53125 z M 157.5625 15.875 L 152.6875 16.53125 C 153.2565 19.72225 153.53125 23.670999 153.53125 28.375 C 153.53125 32.558 153.41551 36.276249 153.1875 39.53125 L 157.625 39.53125 C 157.397 36.00025 157.28025 32.281999 157.28125 28.375 C 157.28125 23.443 157.3675 19.277 157.5625 15.875 z M 130.90625 16.28125 L 126.375 16.4375 C 126.651 19.6765 126.78125 22.51325 126.78125 24.90625 C 126.78125 25.32925 126.75075 26.095 126.71875 27.25 C 126.68575 28.405 126.6875 29.289 126.6875 29.875 C 126.6875 33.993 127.31576 36.73475 128.59375 38.09375 C 129.87075 39.45375 131.93399 40.124999 134.75 40.125 C 137.843 40.125 140.46001 39.22925 142.625 37.40625 L 142.875 37.40625 C 142.875 37.99225 142.99074 38.745251 143.21875 39.65625 L 147 39.5 C 146.642 35.952 146.46776 32.434751 146.46875 28.96875 C 146.46875 23.56575 146.52625 19.341251 146.65625 16.28125 L 142.25 16.4375 C 142.412 19.5785 142.5 25.701 142.5 34.75 C 140.807 36.052 138.66649 36.687501 136.0625 36.6875 C 133.7505 36.6875 132.25275 35.898751 131.59375 34.34375 C 130.93475 32.78975 130.625 29.470751 130.625 24.34375 C 130.625 22.11375 130.71125 19.42325 130.90625 16.28125 z M 294.71875 16.34375 C 294.71875 17.10875 296.0505 20.90525 298.6875 27.78125 C 301.3245 34.65825 302.62498 38.58725 302.625 39.53125 L 305.96875 39.53125 C 305.96875 38.91325 306.72176 36.539498 308.21875 32.4375 C 310.10675 27.2615 311.43776 23.3135 312.21875 20.5625 L 312.4375 20.5625 C 313.2845 23.4105 314.69976 27.34425 316.71875 32.40625 C 318.36275 36.52425 319.18751 38.91325 319.1875 39.53125 L 322.5 39.53125 C 322.5 38.40725 323.89551 34.494501 326.6875 27.8125 C 329.45703 21.182892 330.85369 17.356775 330.875 16.34375 L 326.71875 16.34375 C 326.71875 17.61275 325.8285 20.773751 324.0625 25.84375 C 322.2965 30.91375 321.40624 33.944501 321.40625 34.9375 L 321.15625 34.9375 C 321.15625 34.2535 320.15901 31.172499 318.125 25.6875 C 316.09 20.2025 315.06251 17.092749 315.0625 16.34375 L 310.90625 16.34375 C 310.90625 17.20675 309.92974 20.178251 307.96875 25.28125 C 306.00775 30.38425 305.03125 33.603501 305.03125 34.9375 L 304.75 34.9375 C 304.75 34.0585 303.80224 30.932749 301.90625 25.59375 C 300.00925 20.25575 299.06251 17.19075 299.0625 16.34375 L 294.71875 16.34375 z M 279.625 18.34375 C 281.984 18.34375 283.81574 19.30325 285.09375 21.28125 C 286.37075 23.25925 287.00001 25.5235 287 28.0625 C 287 30.5205 286.37801 32.6825 285.125 34.5625 C 283.872 36.4425 282.09401 37.40625 279.75 37.40625 C 277.374 37.40625 275.52699 36.407499 274.25 34.4375 C 272.972 32.4685 272.34376 30.21225 272.34375 27.65625 C 272.34375 25.18225 272.95676 22.997001 274.21875 21.125 C 275.48075 19.253 277.28099 18.34375 279.625 18.34375 z M 65.4375 18.375 C 69.2615 18.375 71.156249 20.676999 71.15625 25.25 L 58.53125 25.5 C 59.23125 20.747 61.531499 18.375 65.4375 18.375 z M 230.8125 24.25 C 237.9085 24.25 241.46875 26.246 241.46875 30.25 C 241.46875 32.301 240.71501 33.790751 239.25 34.71875 C 237.605 35.74375 234.82825 36.249999 230.90625 36.25 C 229.34425 36.25 228.24299 36.17725 227.625 36.03125 C 227.445 32.61325 227.37501 28.721 227.375 24.375 C 228.368 24.278 229.50951 24.250001 230.8125 24.25 z M 253.65625 67.0625 C 249.61925 67.0625 246.07601 68.633002 243 71.75 C 239.924 74.867 238.37501 79.084248 238.375 84.40625 C 238.375 89.32225 239.82799 93.204747 242.75 96.09375 C 245.671 98.98275 249.09474 100.4375 252.96875 100.4375 C 257.00475 100.4375 260.54899 98.868753 263.625 95.71875 C 266.701 92.56875 268.25 88.350746 268.25 83.09375 C 268.25 78.17875 266.76474 74.296247 263.84375 71.40625 C 260.92175 68.51825 257.52925 67.062498 253.65625 67.0625 z M 4.0625 67.71875 C 4.2905 72.04875 4.4062501 77.0835 4.40625 82.8125 C 4.40625 88.9005 4.2895002 94.485252 4.0625 99.53125 L 8.5 99.53125 C 8.32 96.48825 8.2187499 91.770252 8.21875 85.40625 C 12.17375 85.40625 15.892 85.463753 19.375 85.59375 L 19.375 82.0625 C 15.762 82.1925 12.04375 82.249997 8.21875 82.25 C 8.21875 77.497 8.1325001 73.795754 7.9375 71.09375 C 13.4225 71.09375 18.326251 71.179997 22.65625 71.375 L 22.84375 67.71875 L 4.0625 67.71875 z M 99.96875 67.71875 C 100.21275 72.81375 100.34375 79.079749 100.34375 86.46875 C 100.34375 88.47075 100.2065 90.075497 99.9375 91.3125 C 99.6685 92.5495 99.219748 93.591497 98.59375 94.4375 C 97.96675 95.2845 97.143748 95.914501 96.09375 96.3125 C 95.04475 96.7115 93.805251 96.906251 92.40625 96.90625 C 91.15325 96.90625 89.936251 96.630751 88.78125 96.09375 L 88.4375 99.65625 C 89.6905 99.99825 91.108497 100.1875 92.6875 100.1875 C 94.7375 100.1875 96.472502 99.881501 97.9375 99.3125 C 99.4025 98.7435 100.6265 97.890751 101.5625 96.71875 C 102.4985 95.54675 103.186 94.11525 103.625 92.40625 C 104.064 90.69725 104.28125 88.527254 104.28125 85.90625 C 104.28125 82.29225 104.28675 78.97975 104.34375 75.96875 C 104.39975 72.95775 104.511 70.192747 104.625 67.71875 L 99.96875 67.71875 z M 252.96875 70.46875 C 255.84975 70.46875 258.38774 71.603249 260.59375 73.90625 C 262.79875 76.20925 263.90625 79.45725 263.90625 83.65625 C 263.90625 87.66025 262.85626 90.916999 260.78125 93.375 C 258.70525 95.833 256.32525 97.062502 253.65625 97.0625 C 250.79125 97.0625 248.25225 95.896747 246.03125 93.59375 C 243.80825 91.29075 242.68751 88.028497 242.6875 83.8125 C 242.6875 79.7595 243.72951 76.51875 245.8125 74.09375 C 247.8955 71.66875 250.29974 70.46875 252.96875 70.46875 z M 38.40625 75.25 C 35.16725 75.25 32.3375 76.421249 29.9375 78.78125 C 27.5365 81.14125 26.34375 84.426002 26.34375 88.625 C 26.34375 92.385 27.420751 95.307996 29.59375 97.375 C 31.76675 99.443 34.37925 100.46875 37.40625 100.46875 C 40.64525 100.46875 43.450751 99.304747 45.84375 96.96875 C 48.23675 94.63375 49.4375 91.385753 49.4375 87.21875 C 49.4375 83.42675 48.352502 80.467999 46.1875 78.375 C 44.0225 76.284 41.43325 75.25 38.40625 75.25 z M 308.3125 75.25 C 304.8945 75.25 302.14999 76.530749 300.125 79.09375 C 298.098 81.65675 297.09375 84.733249 297.09375 88.28125 C 297.09375 91.60125 298.21449 94.40775 300.4375 96.71875 C 302.6585 99.03075 305.86175 100.1875 310.09375 100.1875 C 313.10475 100.1875 315.43625 99.853751 317.03125 99.21875 L 317.4375 95.78125 C 315.2725 96.38325 312.94275 96.687502 310.46875 96.6875 C 307.70175 96.6875 305.48851 95.885251 303.8125 94.28125 C 302.1355 92.67825 301.22551 90.688503 301.0625 88.3125 L 317.8125 88.03125 C 317.8775 86.82725 317.90624 85.871503 317.90625 85.1875 C 317.90625 82.2745 317.10374 79.887253 315.46875 78.03125 C 313.83175 76.17625 311.45351 75.250001 308.3125 75.25 z M 191.6875 75.46875 C 188.1555 75.46875 185.57899 76.379747 184 78.21875 L 183.75 78.21875 L 183.40625 75.8125 L 179.09375 76.4375 C 179.90775 80.7345 180.3125 86.779998 180.3125 94.625 C 180.3125 100.989 180.12399 106.3575 179.75 110.6875 L 184.34375 110.6875 C 184.24675 107.1395 184.21874 103.0865 184.21875 98.5625 L 184.4375 98.5625 C 185.3815 99.6365 187.34875 100.1875 190.34375 100.1875 C 193.92475 100.1875 196.74 98.863751 198.75 96.21875 C 200.76 93.57375 201.74999 90.484748 201.75 86.96875 C 201.75 83.84375 200.86951 81.146001 199.0625 78.875 C 197.2555 76.604 194.79549 75.468749 191.6875 75.46875 z M 149.9375 75.53125 C 147.3495 75.53125 144.99099 76.616251 142.875 78.78125 L 142.625 78.78125 L 142.1875 75.8125 L 137.875 76.4375 C 138.608 80.0675 139.00001 83.740003 139 87.5 C 139 89.974 138.84025 93.997251 138.53125 99.53125 L 142.96875 99.53125 C 142.90275 92.69525 142.87499 86.691248 142.875 81.53125 C 144.649 79.82225 146.55875 78.968751 148.59375 78.96875 C 150.57875 78.96875 152.00325 79.380748 152.90625 80.21875 C 153.80925 81.05775 154.28124 82.771004 154.28125 85.375 C 154.28125 90.16 154.07675 94.892252 153.71875 99.53125 L 158.1875 99.53125 C 158.0905 94.14425 158.03125 90.092999 158.03125 87.375 C 158.03125 85.471 158.06001 83.517248 158.125 81.53125 C 159.981 79.82225 161.78925 78.968752 163.53125 78.96875 C 165.59825 78.96875 167.06575 79.380748 167.96875 80.21875 C 168.87275 81.05775 169.34376 82.770997 169.34375 85.375 C 169.34375 90.534 169.15525 95.268251 168.78125 99.53125 L 173.21875 99.53125 C 173.15275 94.14425 173.125 90.092998 173.125 87.375 C 173.125 87.066 173.12426 86.44325 173.15625 85.53125 C 173.18825 84.62025 173.21874 83.997501 173.21875 83.6875 C 173.21875 80.6445 172.524 78.517503 171.125 77.3125 C 169.726 76.1085 167.64025 75.531252 164.90625 75.53125 C 162.51425 75.53125 160.11425 76.616251 157.65625 78.78125 L 157.375 78.78125 C 156.268 76.61725 153.79449 75.531252 149.9375 75.53125 z M 333.875 75.53125 C 331.532 75.53125 329.47676 76.818249 327.71875 79.40625 L 327.5 79.40625 C 327.5 78.80425 327.37151 77.603503 327.0625 75.8125 L 322.78125 76.4375 C 323.54525 79.9695 323.93751 83.643003 323.9375 87.5 C 323.9375 90.349 323.79125 94.372252 323.53125 99.53125 L 327.84375 99.53125 C 327.74675 96.55325 327.71876 91.2995 327.71875 83.8125 C 328.62975 80.8995 330.59626 79.437503 333.65625 79.4375 C 334.74725 79.4375 335.94875 79.714749 337.21875 80.21875 L 338.3125 76.3125 C 336.5865 75.7755 335.113 75.531253 333.875 75.53125 z M 215.3125 75.625 C 212.4485 75.625 210.30524 76.267747 208.90625 77.59375 C 207.50625 78.92075 206.8125 80.520002 206.8125 82.375 C 206.8125 84.149 207.56375 85.684502 209.09375 86.9375 C 210.13575 87.7845 211.81299 88.6515 214.125 89.5625 C 215.948 90.2785 217.2725 90.921999 218.0625 91.5 C 218.8515 92.079 219.25 92.866748 219.25 93.84375 C 219.25 95.86175 217.45425 96.874997 213.90625 96.875 C 211.43125 96.875 209.14625 96.438998 207.03125 95.625 L 206.28125 99.21875 C 208.60925 99.75575 211.09525 100.03125 213.78125 100.03125 C 219.85225 100.03125 222.90624 97.659249 222.90625 92.90625 C 222.90625 91.11625 222.11125 89.568247 220.53125 88.28125 C 219.47325 87.45125 217.85324 86.612999 215.65625 85.75 C 213.62125 84.952 212.23125 84.27975 211.53125 83.71875 C 210.83125 83.15775 210.5 82.412 210.5 81.5 C 210.5 79.693 212.0625 78.781249 215.1875 78.78125 C 217.4985 78.78125 219.52324 79.143754 221.28125 79.84375 L 222.03125 76.3125 C 220.33925 75.8405 218.1125 75.625003 215.3125 75.625 z M 116.375 76.28125 L 111.84375 76.4375 C 112.11975 79.6765 112.25 82.513253 112.25 84.90625 C 112.25 85.32925 112.25075 86.094999 112.21875 87.25 C 112.18575 88.405 112.15625 89.288999 112.15625 89.875 C 112.15625 93.993 112.7845 96.734753 114.0625 98.09375 C 115.3395 99.45375 117.40275 100.125 120.21875 100.125 C 123.31175 100.125 125.92876 99.229252 128.09375 97.40625 L 128.34375 97.40625 C 128.34375 97.99225 128.45949 98.74525 128.6875 99.65625 L 132.46875 99.5 C 132.10975 95.952 131.93649 92.434749 131.9375 88.96875 C 131.9375 83.56575 131.995 79.341249 132.125 76.28125 L 127.75 76.4375 C 127.912 79.5785 127.96875 85.700999 127.96875 94.75 C 126.27575 96.052 124.13525 96.687503 121.53125 96.6875 C 119.21925 96.6875 117.7215 95.898746 117.0625 94.34375 C 116.4035 92.78975 116.09375 89.470749 116.09375 84.34375 C 116.09375 82.11375 116.18 79.423249 116.375 76.28125 z M 54.28125 76.3125 C 54.28125 76.6055 55.352001 78.176 57.5 81 C 59.648 83.824 61.269751 85.843252 62.34375 87.03125 L 62.34375 87.21875 C 60.91075 88.73275 59.014501 91.048246 56.6875 94.15625 C 54.3605 97.26525 53.187498 99.059252 53.1875 99.53125 L 58.09375 99.53125 C 58.09375 99.04325 58.847502 97.515753 60.3125 94.96875 C 61.7765 92.42175 62.92 90.577502 63.75 89.4375 L 63.9375 89.4375 C 65.1255 91.0335 66.499497 93.015003 68.0625 95.375 C 69.6255 97.735 70.406253 99.124252 70.40625 99.53125 L 75.71875 99.53125 C 75.71875 99.15725 74.5375 97.390997 72.1875 94.25 C 69.8355 91.109 67.976747 88.736003 66.59375 87.125 L 66.59375 86.84375 C 67.55375 85.88375 69.106496 83.951502 71.3125 81.0625 C 73.5175 78.1735 74.624997 76.589503 74.625 76.3125 L 70 76.3125 C 70 76.7355 69.370747 78.037747 68.09375 80.21875 C 66.81575 82.39975 65.765746 83.977499 64.96875 84.9375 L 64.75 84.9375 C 63.871 83.8145 62.778752 82.209751 61.46875 80.09375 C 60.15875 77.97775 59.499998 76.703503 59.5 76.3125 L 54.28125 76.3125 z M 271.71875 76.3125 C 271.71875 76.9805 273.18974 80.734499 276.09375 87.5625 C 278.99975 94.3905 280.43749 98.392252 280.4375 99.53125 L 283.71875 99.53125 C 283.71875 98.65225 285.35924 94.767999 288.65625 87.875 C 291.95125 80.982 293.59375 77.110503 293.59375 76.3125 L 289.0625 76.3125 C 289.0625 77.5175 288.07251 80.743748 286.0625 85.96875 C 284.0525 91.19375 283.03125 94.188499 283.03125 94.9375 L 282.8125 94.9375 C 282.8125 94.1565 281.77126 91.045001 279.65625 85.625 C 277.54025 80.205 276.46874 77.093503 276.46875 76.3125 L 271.71875 76.3125 z M 37.84375 78.34375 C 40.20375 78.34375 42.034499 79.303251 43.3125 81.28125 C 44.5905 83.25925 45.21875 85.523499 45.21875 88.0625 C 45.21875 90.5205 44.596751 92.682503 43.34375 94.5625 C 42.08975 96.4425 40.281501 97.406253 37.9375 97.40625 C 35.5605 97.40625 33.74575 96.407498 32.46875 94.4375 C 31.19075 92.4685 30.53125 90.21225 30.53125 87.65625 C 30.53125 85.18225 31.175501 82.996998 32.4375 81.125 C 33.6995 79.253 35.49975 78.343746 37.84375 78.34375 z M 308.09375 78.375 C 311.91775 78.375 313.84376 80.677 313.84375 85.25 L 301.1875 85.5 C 301.8875 80.747 304.18776 78.375 308.09375 78.375 z M 190.15625 78.78125 C 192.45125 78.78125 194.22999 79.658003 195.5 81.375 C 196.769 83.092 197.40625 85.1535 197.40625 87.5625 C 197.40625 90.2155 196.76351 92.487003 195.4375 94.375 C 194.1105 96.263 192.09225 97.187502 189.40625 97.1875 C 187.29025 97.1875 185.568 96.638248 184.25 95.53125 C 184.25 91.60925 184.136 86.937746 183.875 81.46875 C 185.145 79.69475 187.22624 78.78125 190.15625 78.78125 z M 32.53125 124.9375 L 27.90625 125.1875 C 28.37825 129.0775 28.625 134.4445 28.625 141.3125 C 28.625 149.1585 28.552249 155.23425 28.40625 159.53125 L 32.6875 159.53125 C 32.5575 156.40625 32.500002 150.38701 32.5 141.5 C 34.631 139.824 36.902751 139.00001 39.34375 139 C 41.08475 139 42.4525 139.455 43.4375 140.375 C 44.4215 141.295 44.937499 143.08175 44.9375 145.71875 C 44.9375 150.64975 44.733001 155.25124 44.375 159.53125 L 48.8125 159.53125 C 48.7475 154.14425 48.717751 150.28149 48.71875 147.9375 C 48.71875 147.2535 48.748251 146.43325 48.78125 145.53125 C 48.81325 144.62725 48.843751 144.02875 48.84375 143.71875 C 48.84375 140.67475 48.09 138.55675 46.625 137.34375 C 45.16 136.13075 43.13525 135.53125 40.53125 135.53125 C 37.61825 135.53125 34.941002 136.60199 32.5 138.75 L 32.34375 138.75 C 32.34375 134.502 32.401252 129.9015 32.53125 124.9375 z M 207.28125 127.59375 C 206.85725 127.59375 205.959 127.60725 204.625 127.65625 C 203.29 127.70525 202.30625 127.75 201.65625 127.75 L 198.96875 127.75 C 199.21275 132.08 199.34376 137.0835 199.34375 142.8125 C 199.34375 148.9005 199.21275 154.48624 198.96875 159.53125 C 202.92375 159.75925 205.7455 159.875 207.4375 159.875 C 212.6305 159.875 216.70125 158.108 219.65625 154.625 C 222.60925 151.143 224.09375 147.09174 224.09375 142.46875 C 224.09375 138.18875 222.735 134.6365 220 131.8125 C 217.265 128.9885 213.02625 127.59375 207.28125 127.59375 z M 0.125 127.75 L 0 131.21875 C 4.3619999 131.02375 7.74725 130.9375 10.15625 130.9375 C 10.25325 134.1285 10.3125 138.0765 10.3125 142.8125 C 10.3125 148.3955 10.195 153.98124 10 159.53125 L 14.46875 159.53125 C 14.30575 153.70525 14.21875 148.1195 14.21875 142.8125 C 14.21875 138.0115 14.24825 134.0625 14.28125 130.9375 C 17.71525 130.9375 21.058251 131.0245 24.28125 131.1875 L 24.375 127.75 L 0.125 127.75 z M 93.09375 127.75 C 93.28875 131.69 93.375004 136.6935 93.375 142.8125 C 93.375 149.9255 93.288753 155.51124 93.09375 159.53125 L 112.3125 159.53125 L 112.4375 155.9375 C 107.0665 156.1165 101.9455 156.1875 97.0625 156.1875 C 97.2415 152.8345 97.343752 148.3785 97.34375 142.8125 C 97.34375 136.0415 97.430002 131.038 97.625 127.75 L 93.09375 127.75 z M 205.71875 130.875 C 210.53675 130.875 214.10225 132.10624 216.40625 134.53125 C 218.70925 136.95725 219.84375 139.98075 219.84375 143.59375 C 219.84375 147.17475 218.81075 150.23424 216.71875 152.78125 C 214.62675 155.32825 211.42201 156.59375 207.125 156.59375 C 205.92 156.59375 204.677 156.44849 203.375 156.1875 C 203.195 151.6625 203.09375 147.20751 203.09375 142.8125 C 203.09375 138.8085 203.03626 134.91701 202.90625 131.125 C 204.09525 130.962 205.03476 130.87499 205.71875 130.875 z M 277.84375 132.875 C 275.62975 132.875 274.23976 134.25 273.71875 137 L 273.46875 137 C 271.95475 136.04 269.87174 135.56251 267.21875 135.5625 C 263.97975 135.5625 261.49024 136.372 259.78125 138 C 258.07225 139.628 257.21876 141.75575 257.21875 144.34375 C 257.21875 145.84175 257.62526 147.08475 258.40625 148.09375 C 259.18725 149.10275 260.01301 149.82699 260.875 150.25 L 260.875 150.4375 C 259.247 151.6425 258.40624 153.03 258.40625 154.625 C 258.40625 156.382 259.05775 157.5695 260.34375 158.1875 L 260.34375 158.4375 C 259.12375 158.6985 258.10325 159.36175 257.28125 160.46875 C 256.45925 161.57575 256.06249 163.052 256.0625 164.875 C 256.0625 166.877 256.89451 168.575 258.5625 170 C 260.2305 171.424 263.01449 172.15625 266.9375 172.15625 C 270.7625 172.15625 273.87225 171.171 276.28125 169.25 C 278.69025 167.329 279.90625 164.93001 279.90625 162 C 279.90625 157.899 276.81 155.84375 270.625 155.84375 C 266.8 155.84375 264.29776 155.61225 263.09375 155.15625 C 262.14975 154.81425 261.65625 154.1045 261.65625 153.0625 C 261.65625 152.2165 262.07701 151.50649 262.875 150.9375 C 263.787 151.2625 265.0155 151.4375 266.5625 151.4375 C 270.0455 151.4375 272.61326 150.62075 274.28125 148.96875 C 275.94925 147.31675 276.78124 145.2265 276.78125 142.6875 C 276.78125 141.0605 276.26076 139.61375 275.21875 138.34375 L 275.21875 138.09375 C 275.52875 137.11675 277.19175 136.62499 280.21875 136.625 L 280.625 133.25 C 279.974 133.006 279.05074 132.875 277.84375 132.875 z M 65.625 135.25 C 62.207 135.25 59.49475 136.52976 57.46875 139.09375 C 55.44175 141.65675 54.406251 144.73325 54.40625 148.28125 C 54.40625 151.60125 55.528001 154.40676 57.75 156.71875 C 59.972 159.03075 63.2055 160.1875 67.4375 160.1875 C 70.4485 160.1875 72.748753 159.85374 74.34375 159.21875 L 74.75 155.78125 C 72.585 156.38325 70.286503 156.68749 67.8125 156.6875 C 65.0455 156.6875 62.801 155.88525 61.125 154.28125 C 59.448 152.67725 58.537999 150.6885 58.375 148.3125 L 75.15625 148.03125 C 75.22125 146.82725 75.250003 145.8715 75.25 145.1875 C 75.25 142.2745 74.417249 139.88624 72.78125 138.03125 C 71.14525 136.17625 68.766 135.25 65.625 135.25 z M 241 135.25 C 237.761 135.25 234.93225 136.42126 232.53125 138.78125 C 230.13025 141.14125 228.9375 144.426 228.9375 148.625 C 228.9375 152.385 230.01549 155.309 232.1875 157.375 C 234.3615 159.443 236.973 160.46875 240 160.46875 C 243.238 160.46875 246.04451 159.30475 248.4375 156.96875 C 250.8305 154.63275 252.03125 151.38575 252.03125 147.21875 C 252.03125 143.42675 250.94525 140.49826 248.78125 138.40625 C 246.61625 136.31525 244.02701 135.25 241 135.25 z M 125.03125 135.53125 C 121.85725 135.53125 119.03475 135.86351 116.59375 136.5625 L 116.1875 139.9375 C 118.6615 139.3025 121.16275 139 123.71875 139 C 125.88275 139 127.49649 139.33301 128.5625 140 C 129.6285 140.668 130.1875 141.99799 130.1875 144 C 130.1875 144.505 130.14274 144.95276 130.09375 145.34375 C 124.34775 145.42475 120.4285 146.22901 118.3125 147.75 C 116.1965 149.271 115.125 151.27425 115.125 153.78125 C 115.125 155.81525 115.80525 157.36875 117.15625 158.46875 C 118.50725 159.56575 120.128 160.125 122 160.125 C 125.45 160.125 128.1855 159.22924 130.1875 157.40625 L 130.40625 157.40625 C 130.40625 158.12225 130.52374 158.85925 130.71875 159.65625 L 134.53125 159.53125 C 134.09125 157.22025 133.875 154.589 133.875 151.625 C 133.875 150.958 133.927 149.60375 134 147.59375 C 134.073 145.58375 134.09375 144.20251 134.09375 143.4375 C 134.09375 140.5565 133.32901 138.5095 131.75 137.3125 C 130.171 136.1175 127.92825 135.53124 125.03125 135.53125 z M 140.21875 136.3125 L 140.09375 140.15625 C 143.15375 139.94425 147.27501 139.84375 152.5 139.84375 L 152.53125 140.125 C 152.53125 140.694 150.607 143.32725 146.75 148.03125 C 143.202 152.34525 140.987 154.92001 140.125 155.75 L 139.9375 159.53125 L 157.75 159.53125 L 157.875 155.59375 C 154.229 155.85475 149.94726 155.96974 145.03125 155.96875 L 145.03125 155.78125 C 145.03125 155.14725 146.854 152.54349 150.5 147.9375 C 153.43 144.2425 155.58651 141.63725 156.9375 140.15625 L 157.1875 136.3125 L 140.21875 136.3125 z M 161.375 136.34375 C 161.375 136.48975 162.88 139.93174 165.875 146.71875 C 168.869 153.50575 170.375 157.818 170.375 159.625 C 170.375 161.708 169.69475 163.4285 168.34375 164.8125 C 166.99275 166.1965 165.284 166.90626 163.25 166.90625 L 163.4375 170.3125 C 166.7735 170.3125 169.10325 169.50125 170.40625 167.90625 C 171.36625 166.75025 172.40825 164.06049 173.53125 159.8125 C 174.21525 157.1925 175.96624 152.67725 178.78125 146.28125 C 181.23925 140.68225 182.46875 137.38575 182.46875 136.34375 L 178.03125 136.34375 C 178.03125 137.80775 177.1695 141.07825 175.4375 146.15625 C 173.7025 151.23425 172.81249 154.28575 172.8125 155.34375 L 172.59375 155.34375 C 172.59375 154.07375 171.551 150.70374 169.5 145.21875 C 167.449 139.73375 166.4375 136.78275 166.4375 136.34375 L 161.375 136.34375 z M 266.84375 138.125 C 268.58575 138.125 270.02525 138.61149 271.15625 139.5625 C 272.28725 140.5155 272.84376 141.89749 272.84375 143.6875 C 272.84375 145.3475 272.2875 146.62825 271.1875 147.53125 C 270.0895 148.43525 268.75299 148.87501 267.125 148.875 C 265.351 148.875 263.88099 148.428 262.75 147.5 C 261.619 146.572 261.0625 145.2115 261.0625 143.4375 C 261.0625 141.7455 261.61275 140.42 262.71875 139.5 C 263.82475 138.581 265.19874 138.125 266.84375 138.125 z M 240.4375 138.34375 C 242.7965 138.34375 244.59699 139.33349 245.875 141.3125 C 247.152 143.2885 247.81249 145.52351 247.8125 148.0625 C 247.8125 150.5205 247.1905 152.71174 245.9375 154.59375 C 244.6845 156.47275 242.87524 157.40624 240.53125 157.40625 C 238.15525 157.40625 236.33951 156.4075 235.0625 154.4375 C 233.7845 152.4685 233.125 150.21226 233.125 147.65625 C 233.125 145.18225 233.76925 142.997 235.03125 141.125 C 236.29325 139.253 238.0935 138.34375 240.4375 138.34375 z M 65.4375 138.375 C 69.2615 138.375 71.156249 140.67701 71.15625 145.25 L 58.53125 145.5 C 59.23125 140.748 61.531499 138.37501 65.4375 138.375 z M 130.09375 148.125 C 130.09375 150.095 130.13675 152.30725 130.21875 154.78125 C 128.62275 156.11625 126.4965 156.78125 123.8125 156.78125 C 120.6875 156.78125 119.125 155.68274 119.125 153.46875 C 119.125 151.17375 120.456 149.6255 123.125 148.8125 C 124.719 148.3565 127.03374 148.12499 130.09375 148.125 z M 288.03125 152.8125 C 286.87525 152.8125 285.9635 153.16799 285.3125 153.875 C 284.6605 154.584 284.34374 155.40075 284.34375 156.34375 C 284.34375 157.22275 284.62726 157.98999 285.15625 158.625 C 285.68425 159.26 286.41501 159.5625 287.375 159.5625 C 288.515 159.5625 289.41951 159.20075 290.0625 158.46875 C 290.7055 157.73675 291.03126 156.8975 291.03125 155.9375 C 291.03125 155.0585 290.76299 154.32276 290.25 153.71875 C 289.738 153.11775 288.99126 152.81251 288.03125 152.8125 z M 262.5625 159.1875 C 264.2885 159.3825 266.19824 159.46875 268.28125 159.46875 C 271.35725 159.46875 273.44751 159.77925 274.5625 160.40625 C 275.6775 161.03325 276.25001 162.12625 276.25 163.65625 C 276.25 165.34825 275.46101 166.72125 273.875 167.78125 C 272.287 168.83925 270.12424 169.375 267.40625 169.375 C 262.19725 169.375 259.59376 167.37825 259.59375 163.40625 C 259.59375 161.55025 260.5775 160.1475 262.5625 159.1875 z "
   transform="translate(-8.330271e-6,0)"
   id="path5" />
	
	
	
	
	
	
	
	
	
	
	
	
	
	
	
	
	
	
	
	
	
	
	
	
	
	
	
	
	
	
	
	
	
	
	
</g>
<g
   id="g77">
	<path
   d="M487.906,1.611l-1.719,14.824c-13.32,0-20.662,2.148-22.021,6.445v1.074c4.582,5.586,6.875,11.961,6.875,19.121   c0,11.172-3.672,20.393-11.012,27.662s-18.674,10.902-33.998,10.902c-6.805,0-12.211-0.715-16.221-2.148   c-3.51,2.508-5.264,5.623-5.264,9.346c0,4.584,2.076,7.627,6.23,9.131c5.299,2.006,16.363,3.008,33.193,3.008   c27.213,0,40.82,9.023,40.82,27.07c0,12.891-5.301,23.561-15.898,32.012c-10.6,8.449-24.314,12.676-41.143,12.676   c-17.26,0-29.561-3.135-36.9-9.398c-7.34-6.268-11.01-13.805-11.01-22.613c0-8.021,1.807-14.467,5.424-19.336   s8.111-7.877,13.482-9.023v-0.967c-5.658-2.721-8.486-7.949-8.486-15.684c0-7.018,3.58-13.176,10.742-18.477v-0.859   c-3.797-1.861-7.412-5.012-10.85-9.453c-3.438-4.439-5.156-9.953-5.156-16.543c0-11.387,3.76-20.66,11.279-27.822   c7.52-7.16,18.404-10.742,32.656-10.742c11.672,0,20.84,2.113,27.5,6.338h1.182C459.904,6.053,465.92,0,475.66,0   C480.959,0,485.041,0.537,487.906,1.611z M468.678,135.352c0-6.732-2.453-11.477-7.359-14.232   c-4.906-2.76-14.125-4.137-27.66-4.137c-9.168,0-17.547-0.43-25.137-1.289c-8.738,4.225-13.105,10.42-13.105,18.584   c0,17.473,11.457,26.211,34.375,26.211c11.959,0,21.43-2.328,28.412-6.982C465.186,148.85,468.678,142.799,468.678,135.352z    M453.746,47.48c0-7.877-2.49-13.91-7.467-18.1s-11.297-6.285-18.959-6.285c-7.234,0-13.285,2.023-18.154,6.07   c-4.871,4.047-7.305,9.793-7.305,17.24c0,7.807,2.488,13.75,7.465,17.832s11.369,6.123,19.176,6.123   c7.16,0,13.158-1.986,17.992-5.961S453.746,54.785,453.746,47.48z"
   id="path79" />
</g>
<g
   id="g81">
	<path
   d="M 364.59375 178.59375 L 359.90625 178.71875 C 359.98425 184.14175 360.03124 187.547 360.03125 188.875 C 360.03125 190.587 359.98424 193.64675 359.90625 198.09375 L 364.5 198.21875 L 364.59375 196.5 C 363.05675 196.611 362.07676 196.67349 361.59375 196.6875 C 361.54075 192.3715 361.49999 189.78 361.5 188.875 C 361.5 187.618 361.54076 184.71776 361.59375 180.21875 C 362.11475 180.21875 363.06699 180.24225 364.5 180.28125 L 364.59375 178.59375 z M 371.40625 178.59375 L 371.3125 180.28125 C 372.8485 180.17025 373.86177 180.10675 374.34375 180.09375 C 374.39575 184.40975 374.43751 187.0325 374.4375 187.9375 C 374.4375 189.1945 374.39577 192.06351 374.34375 196.5625 C 373.82175 196.5625 372.83826 196.539 371.40625 196.5 L 371.3125 198.1875 L 376.03125 198.0625 C 375.95325 192.6395 375.90325 189.2665 375.90625 187.9375 C 375.90625 186.2255 375.95324 183.13449 376.03125 178.6875 L 371.40625 178.59375 z M 387.3125 178.59375 C 386.3485 179.10175 385.5085 179.80325 384.8125 180.65625 C 383.1525 182.70725 382.31249 185.41975 382.3125 188.84375 C 382.3125 192.02775 383.12199 194.56425 384.75 196.40625 C 385.414 197.16825 386.23051 197.77574 387.1875 198.21875 L 387.90625 197.375 C 387.51625 197.082 387.17073 196.7735 386.84375 196.4375 C 386.51775 196.1015 386.2165 195.73474 385.9375 195.34375 C 384.6095 193.49475 383.93751 191.31775 383.9375 188.84375 C 383.9375 185.95275 384.58599 183.5415 385.875 181.5625 C 386.409 180.7425 387.0565 180.0295 387.8125 179.4375 L 387.3125 178.59375 z M 394.4375 178.59375 L 393.71875 179.4375 C 394.49275 180.0165 395.16476 180.69375 395.71875 181.46875 C 397.03975 183.31075 397.68749 185.45751 397.6875 187.9375 C 397.6875 190.8225 397.03901 193.264 395.75 195.25 C 395.209 196.077 394.5675 196.789 393.8125 197.375 L 394.3125 198.21875 C 395.2825 197.71075 396.11551 197.00924 396.8125 196.15625 C 398.4725 194.10525 399.31249 191.36151 399.3125 187.9375 C 399.3125 184.7545 398.501 182.24725 396.875 180.40625 C 396.198 179.63825 395.38751 179.02974 394.4375 178.59375 z M 410.625 178.59375 C 407.727 178.95175 406.28125 180.05725 406.28125 181.90625 C 406.28125 182.34225 406.42875 183.09125 406.71875 184.15625 C 407.00875 185.22125 407.15626 185.91975 407.15625 186.21875 C 407.15625 187.00075 406.35626 187.49076 404.78125 187.71875 L 404.78125 189.1875 C 406.30425 189.3505 407.06251 189.818 407.0625 190.625 C 407.0625 190.924 406.9515 191.64299 406.6875 192.75 C 406.4235 193.857 406.28125 194.643 406.28125 195.125 C 406.28125 196.615 407.68701 197.66401 410.5 198.25 L 411.09375 197 C 408.94475 196.492 407.87401 195.62325 407.875 194.40625 C 407.875 194.11325 408.02549 193.47999 408.3125 192.5 C 408.5985 191.52 408.74999 190.885 408.75 190.625 C 408.75 189.896 408.46451 189.36801 407.9375 189 C 407.4105 188.632 406.93599 188.43749 406.5 188.4375 L 406.5 188.34375 C 406.942 188.34375 407.44476 188.15525 407.96875 187.78125 C 408.49275 187.40725 408.74999 186.8905 408.75 186.1875 C 408.75 185.9525 408.59849 185.34425 408.3125 184.40625 C 408.0255 183.46925 407.87501 182.838 407.875 182.5 C 407.875 180.957 408.91601 180.0605 411 179.8125 L 410.625 178.59375 z M 416.78125 178.59375 L 416.1875 179.84375 C 418.3365 180.35175 419.40625 181.2205 419.40625 182.4375 C 419.40625 182.7305 419.25474 183.36376 418.96875 184.34375 C 418.68175 185.32375 418.53124 185.95876 418.53125 186.21875 C 418.53125 186.94775 418.81675 187.47574 419.34375 187.84375 C 419.87075 188.21175 420.34424 188.40626 420.78125 188.40625 L 420.78125 188.5 C 420.33825 188.5 419.86776 188.6885 419.34375 189.0625 C 418.81975 189.4365 418.53124 189.9845 418.53125 190.6875 C 418.53125 190.9225 418.68174 191.49951 418.96875 192.4375 C 419.25475 193.3745 419.40625 194.00575 419.40625 194.34375 C 419.40625 195.88675 418.36425 196.78325 416.28125 197.03125 L 416.65625 198.25 C 419.55325 197.892 421.00001 196.78651 421 194.9375 C 421 194.5015 420.85251 193.7525 420.5625 192.6875 C 420.2725 191.6225 420.12501 190.924 420.125 190.625 C 420.125 189.843 420.924 189.35299 422.5 189.125 L 422.5 187.65625 C 420.977 187.49325 420.21876 187.02576 420.21875 186.21875 C 420.21875 185.91975 420.36101 185.20075 420.625 184.09375 C 420.889 182.98675 420.99999 182.20074 421 181.71875 C 421 180.22875 419.59426 179.17975 416.78125 178.59375 z M 430.875 179.25 C 430.875 180.481 430.29075 183.54451 429.09375 188.4375 C 427.89575 193.3305 427.28125 195.98326 427.28125 196.40625 L 428.75 196.40625 C 428.75 195.30625 429.3715 192.28874 430.5625 187.34375 C 431.7535 182.39875 432.34376 179.699 432.34375 179.25 L 430.875 179.25 z M 436.96875 179.25 C 436.96875 179.699 437.55975 182.39874 438.71875 187.34375 C 439.87675 192.28775 440.43749 195.30626 440.4375 196.40625 L 442.03125 196.40625 C 442.03125 195.98325 441.44526 193.3295 440.28125 188.4375 C 439.11525 183.5445 438.53125 180.48 438.53125 179.25 L 436.96875 179.25 z M 61.03125 179.40625 C 59.97625 179.40625 59.200751 179.80875 58.71875 180.59375 C 58.23675 181.37875 58.000001 182.65 58 184.375 C 57.557 184.375 56.866748 184.33326 55.96875 184.28125 L 55.90625 185.71875 C 56.89625 185.67975 57.603001 185.65626 58 185.65625 C 58 188.67725 57.934748 191.2695 57.84375 193.4375 L 59.59375 193.4375 C 59.51575 191.2115 59.468751 188.61826 59.46875 185.65625 C 59.91775 185.65625 60.810002 185.67975 62.125 185.71875 L 62.1875 184.25 C 61.0285 184.315 60.113751 184.375 59.46875 184.375 C 59.46875 182.897 59.6005 181.9095 59.8125 181.4375 C 60.0245 180.9655 60.432251 180.71876 61.03125 180.71875 C 61.42225 180.71875 61.7965 180.777 62.1875 180.875 L 62.46875 179.59375 C 61.96075 179.48275 61.493251 179.40725 61.03125 179.40625 z M 17.40625 179.625 L 15.46875 179.71875 C 15.68375 181.66575 15.78125 183.83051 15.78125 186.1875 C 15.78125 188.7985 15.74025 191.22275 15.65625 193.46875 L 17.09375 193.46875 L 17.34375 193.0625 L 17.4375 193.0625 C 17.8665 193.4925 18.676999 193.71875 19.875 193.71875 C 21.288 193.71875 22.373499 193.20425 23.1875 192.15625 C 24.0015 191.10825 24.4375 189.8635 24.4375 188.4375 C 24.4375 187.1685 24.044499 186.08651 23.3125 185.1875 C 22.5805 184.2885 21.61125 183.84375 20.40625 183.84375 C 19.01925 183.84375 18.013001 184.20149 17.375 184.9375 L 17.3125 184.9375 C 17.3125 182.5095 17.34125 180.745 17.40625 179.625 z M 76.3125 179.625 L 74.46875 179.71875 C 74.65775 181.27475 74.75 183.4395 74.75 186.1875 C 74.75 189.3255 74.715247 191.74975 74.65625 193.46875 L 76.375 193.46875 C 76.323 192.21875 76.281248 189.805 76.28125 186.25 C 77.13425 185.579 78.054252 185.24999 79.03125 185.25 C 79.72825 185.25 80.262251 185.44451 80.65625 185.8125 C 81.05025 186.1805 81.249997 186.8825 81.25 187.9375 C 81.25 189.9095 81.174251 191.75675 81.03125 193.46875 L 82.8125 193.46875 C 82.7865 191.31375 82.782252 189.7495 82.78125 188.8125 C 82.78125 188.5395 82.798497 188.23699 82.8125 187.875 C 82.8265 187.513 82.812501 187.28025 82.8125 187.15625 C 82.8125 185.93825 82.523499 185.07876 81.9375 184.59375 C 81.3515 184.10875 80.542001 183.84375 79.5 183.84375 C 78.334 183.84375 77.258248 184.29725 76.28125 185.15625 L 76.21875 185.15625 C 76.21875 183.45725 76.260501 181.61099 76.3125 179.625 z M 95.875 179.625 L 94 179.71875 C 94.189 181.50275 94.281248 183.6675 94.28125 186.1875 C 94.28125 188.6615 94.240247 191.08575 94.15625 193.46875 L 95.875 193.46875 C 95.804 191.56875 95.749998 189.92426 95.75 188.53125 L 95.84375 188.53125 C 96.17575 188.53125 96.986252 189.28776 98.28125 190.84375 C 99.54525 192.35375 100.15625 193.24075 100.15625 193.46875 L 102.46875 193.46875 C 102.46875 193.25375 101.8805 192.43124 100.6875 191.03125 C 99.4185 189.54625 98.3695 188.51825 97.5625 187.90625 L 97.5625 187.8125 C 98.3565 187.2845 99.230501 186.62649 100.1875 185.8125 C 101.2095 184.9405 101.71875 184.3955 101.71875 184.1875 L 99.5625 184.1875 C 99.5625 184.4155 98.979753 185.05825 97.84375 186.15625 C 96.70775 187.25425 96.058747 187.8125 95.84375 187.8125 L 95.75 187.8125 C 95.75 183.7565 95.803003 181.03099 95.875 179.625 z M 105.75 179.625 L 103.75 179.71875 C 103.939 181.39175 104.03125 183.5575 104.03125 186.1875 C 104.03125 188.8955 103.992 191.32075 103.875 193.46875 L 105.75 193.46875 C 105.626 191.28775 105.5625 188.8635 105.5625 186.1875 C 105.5625 183.5895 105.626 181.39599 105.75 179.625 z M 44.125 179.65625 L 42.25 179.71875 C 42.342 181.27475 42.406249 182.85374 42.40625 184.46875 L 42.3125 184.46875 C 41.8565 184.03875 41.117501 183.84375 40.0625 183.84375 C 38.5835 183.84375 37.439 184.36424 36.625 185.40625 C 35.811 186.44825 35.406251 187.686 35.40625 189.125 C 35.40625 190.395 35.767998 191.476 36.5 192.375 C 37.232 193.274 38.2005 193.71875 39.4375 193.71875 C 40.7855 193.71875 41.815999 193.33575 42.5 192.59375 L 42.59375 192.59375 C 42.59375 192.90675 42.635501 193.21999 42.6875 193.5 L 44.125 193.4375 C 43.989 191.2955 43.937501 188.87825 43.9375 186.15625 C 43.9375 183.48025 44.001 181.31025 44.125 179.65625 z M 338.03125 180.125 C 337.04025 180.125 336.18476 180.4035 335.46875 180.9375 C 334.75175 181.4715 334.40624 182.21049 334.40625 183.1875 C 334.40625 184.4045 335.06425 185.423 336.40625 186.25 L 336.40625 186.375 C 335.51325 186.752 334.82475 187.234 334.34375 187.875 C 333.86075 188.516 333.62499 189.238 333.625 190 C 333.625 191.159 334.05925 192.0425 334.90625 192.6875 C 335.75225 193.3325 336.74726 193.65625 337.90625 193.65625 C 339.09125 193.65625 340.09976 193.32725 340.96875 192.65625 C 341.83775 191.98525 342.28125 191.04875 342.28125 189.84375 C 342.28125 188.37875 341.35574 187.1225 339.46875 186.0625 L 339.46875 185.9375 C 340.13875 185.6645 340.65325 185.27175 341.03125 184.71875 C 341.40825 184.16575 341.59374 183.57375 341.59375 182.96875 C 341.59375 182.08375 341.23724 181.383 340.53125 180.875 C 339.82525 180.367 338.99424 180.12499 338.03125 180.125 z M 86.53125 180.1875 C 86.14025 180.1875 85.814747 180.32151 85.59375 180.5625 C 85.37275 180.8035 85.281247 181.08025 85.28125 181.40625 C 85.28125 181.70625 85.377497 181.94525 85.5625 182.15625 C 85.7475 182.36725 86.011746 182.46875 86.34375 182.46875 C 86.73375 182.46875 87.034999 182.369 87.25 182.125 C 87.465 181.881 87.562501 181.582 87.5625 181.25 C 87.5625 180.963 87.467251 180.711 87.28125 180.5 C 87.09525 180.289 86.850247 180.1875 86.53125 180.1875 z M 90.875 180.1875 C 90.484 180.1875 90.189751 180.32151 89.96875 180.5625 C 89.74775 180.8035 89.625002 181.08025 89.625 181.40625 C 89.625 181.70625 89.721252 181.94525 89.90625 182.15625 C 90.09125 182.36725 90.355501 182.46875 90.6875 182.46875 C 91.0775 182.46875 91.378746 182.369 91.59375 182.125 C 91.80875 181.881 91.906248 181.582 91.90625 181.25 C 91.90625 180.963 91.810998 180.711 91.625 180.5 C 91.439 180.289 91.194002 180.1875 90.875 180.1875 z M 319.96875 180.34375 C 315.41075 180.62375 313.125 183.35 313.125 188.5 C 313.125 190.271 313.56326 191.589 314.40625 192.5 C 315.24925 193.411 316.24651 193.875 317.4375 193.875 C 318.8245 193.875 319.92349 193.45874 320.6875 192.59375 C 321.4515 191.72875 321.81251 190.678 321.8125 189.5 C 321.8125 188.412 321.50476 187.4785 320.84375 186.6875 C 320.18275 185.8965 319.25874 185.5 318.09375 185.5 C 316.62175 185.5 315.56251 185.94651 314.9375 186.8125 L 314.84375 186.8125 C 314.99275 185.1075 315.47125 183.83699 316.28125 183 C 317.09125 182.163 318.36174 181.64476 320.09375 181.46875 L 319.96875 180.34375 z M 476.1875 180.4375 L 475.9375 181.65625 C 478.6915 181.65625 480.06251 182.36824 480.0625 183.78125 C 480.0625 185.03725 479.26949 185.806 477.6875 186.125 L 478.0625 188.21875 L 478.8125 188.21875 L 479 186.75 C 480.803 185.976 481.71875 184.87475 481.71875 183.46875 C 481.71875 181.43775 479.8845 180.43651 476.1875 180.4375 z M 337.96875 181.21875 C 338.53475 181.21875 339.03052 181.415 339.4375 181.75 C 339.8445 182.085 340.03125 182.55651 340.03125 183.1875 C 340.03125 184.2485 339.43401 185.0345 338.25 185.5625 C 336.707 184.8265 335.9375 183.93 335.9375 182.875 C 335.9375 182.367 336.15849 181.98349 336.5625 181.6875 C 336.9655 181.3915 337.42776 181.21874 337.96875 181.21875 z M 187 181.4375 L 185.46875 181.59375 C 185.40375 183.05875 185.37499 183.98401 185.375 184.375 C 184.887 184.375 184.33775 184.3515 183.71875 184.3125 L 183.65625 185.75 C 184.36525 185.711 184.91625 185.6875 185.28125 185.6875 C 185.26725 187.2885 185.25 188.5665 185.25 189.5625 C 185.25 191.0985 185.47725 192.18526 185.90625 192.78125 C 186.33525 193.37725 187.1405 193.65624 188.3125 193.65625 C 188.7675 193.65625 189.236 193.564 189.75 193.375 L 189.875 192.125 C 189.38 192.256 189.001 192.3135 188.75 192.3125 C 187.982 192.3125 187.47049 192.08925 187.1875 191.65625 C 186.9045 191.22325 186.75 190.34099 186.75 189 C 186.75 187.77 186.76824 186.6705 186.78125 185.6875 C 187.49025 185.6875 188.42175 185.711 189.59375 185.75 L 189.65625 184.28125 C 188.41925 184.34625 187.48175 184.37501 186.84375 184.375 C 186.84375 183.783 186.889 182.8045 187 181.4375 z M 71.8125 182.8125 C 70.9265 182.8125 70.395503 183.36874 70.1875 184.46875 L 70.09375 184.46875 C 69.48875 184.08475 68.654747 183.875 67.59375 183.875 C 66.29775 183.875 65.307999 184.19274 64.625 184.84375 C 63.942 185.49475 63.593751 186.34 63.59375 187.375 C 63.59375 187.974 63.750499 188.472 64.0625 188.875 C 64.3745 189.278 64.686249 189.58099 65.03125 189.75 L 65.03125 189.8125 C 64.38025 190.2945 64.062496 190.862 64.0625 191.5 C 64.0625 192.203 64.32975 192.6895 64.84375 192.9375 L 64.84375 193.03125 C 64.35475 193.13525 63.921748 193.40075 63.59375 193.84375 C 63.26575 194.28675 63.124998 194.86475 63.125 195.59375 C 63.125 196.39475 63.458003 197.08725 64.125 197.65625 C 64.792 198.22525 65.899749 198.5 67.46875 198.5 C 68.99875 198.5 70.255751 198.11174 71.21875 197.34375 C 72.18175 196.57575 72.656251 195.6095 72.65625 194.4375 C 72.65625 192.7965 71.411499 192 68.9375 192 C 67.4075 192 66.419497 191.90076 65.9375 191.71875 C 65.5605 191.58175 65.374999 191.29201 65.375 190.875 C 65.375 190.536 65.524753 190.25925 65.84375 190.03125 C 66.20875 190.16125 66.693497 190.21876 67.3125 190.21875 C 68.7055 190.21875 69.738251 189.911 70.40625 189.25 C 71.07425 188.589 71.406251 187.73475 71.40625 186.71875 C 71.40625 186.06775 71.198251 185.47674 70.78125 184.96875 L 70.78125 184.875 C 70.90525 184.484 71.570253 184.3125 72.78125 184.3125 L 72.9375 182.9375 C 72.6775 182.8405 72.293504 182.8125 71.8125 182.8125 z M 260.15625 183.0625 C 258.74325 183.0625 257.649 183.60125 256.875 184.65625 C 256.1 185.71125 255.71875 186.99951 255.71875 188.5625 C 255.71875 190.0535 256.0905 191.287 256.8125 192.25 C 257.5345 193.213 258.55226 193.68749 259.90625 193.6875 C 261.31825 193.6875 262.41351 193.17999 263.1875 192.125 C 263.9625 191.07 264.34374 189.7505 264.34375 188.1875 C 264.34375 186.6975 264.00326 185.463 263.28125 184.5 C 262.55925 183.537 261.51024 183.0625 260.15625 183.0625 z M 269.71875 183.0625 L 266.21875 185.65625 L 266.65625 186.5 L 268.90625 185.40625 C 268.97725 186.22025 269.00001 187.4755 269 189.1875 C 269 190.6655 268.97726 192.09475 268.90625 193.46875 L 270.5625 193.46875 C 270.4975 192.00975 270.46973 190.5815 270.46875 189.1875 C 270.46875 187.2155 270.49749 185.1655 270.5625 183.0625 L 269.71875 183.0625 z M 275.71875 183.0625 C 274.93675 183.0625 274.32475 183.12 273.84375 183.25 L 273.65625 184.65625 C 274.11825 184.55225 274.74325 184.5 275.53125 184.5 C 277.36725 184.5 278.28126 185.15726 278.28125 186.53125 C 278.28125 187.54625 277.934 188.472 277.25 189.25 C 276.566 190.028 275.37349 190.99725 273.6875 192.15625 L 273.5 193.46875 L 280.59375 193.46875 L 280.78125 192.09375 C 278.97125 192.17175 277.13025 192.1865 275.28125 192.1875 L 275.28125 192.125 C 276.59525 191.279 277.71701 190.36925 278.625 189.40625 C 279.533 188.44325 280.00001 187.34376 280 186.09375 C 280 185.25375 279.63349 184.5235 278.9375 183.9375 C 278.2405 183.3515 277.16376 183.0625 275.71875 183.0625 z M 286 183.0625 C 284.717 183.0625 283.75525 183.16775 283.15625 183.34375 L 283.0625 184.71875 C 283.6615 184.58175 284.35525 184.50001 285.15625 184.5 C 286.22325 184.5 286.99199 184.63925 287.5 184.90625 C 288.008 185.17325 288.28125 185.619 288.28125 186.25 C 288.28125 186.92 287.8695 187.45975 287.0625 187.84375 C 286.2545 188.22775 285.22476 188.40625 283.96875 188.40625 L 283.78125 189.5625 C 285.36325 189.5625 286.54801 189.7735 287.375 190.1875 C 288.201 190.6015 288.62499 191.3035 288.625 192.3125 C 288.625 193.3995 288.07474 194.27949 286.96875 194.9375 C 285.86175 195.5955 284.31676 195.995 282.34375 196.125 L 282.625 197.3125 C 285.105 197.1895 286.99349 196.6205 288.3125 195.5625 C 289.6315 194.5045 290.31249 193.29075 290.3125 191.96875 C 290.3125 191.08375 290.044 190.34901 289.5 189.75 C 288.956 189.151 288.2635 188.781 287.4375 188.625 L 287.4375 188.53125 C 288.9415 188.03025 289.68749 187.057 289.6875 185.625 C 289.6875 184.928 289.35975 184.31751 288.71875 183.8125 C 288.07775 183.3075 287.18501 183.06249 286 183.0625 z M 348.9375 183.0625 C 347.5765 183.0625 346.50201 183.506 345.75 184.375 C 344.998 185.244 344.625 186.2595 344.625 187.4375 C 344.625 188.5375 344.97101 189.48425 345.625 190.28125 C 346.279 191.07825 347.16049 191.5 348.3125 191.5 C 349.7385 191.5 350.7865 191.02475 351.4375 190.09375 L 351.53125 190.09375 C 351.31625 193.96075 349.42299 196.009 345.875 196.25 L 346.1875 197.40625 C 350.9075 197.12625 353.24999 194.21625 353.25 188.65625 C 353.25 186.81425 352.84299 185.40976 352 184.46875 C 351.157 183.52775 350.1345 183.0625 348.9375 183.0625 z M 297.4375 183.15625 C 297.4435 183.25325 296.57651 184.486 294.8125 186.875 C 293.0485 189.264 292.15626 190.54975 292.15625 190.71875 L 292.375 191.96875 L 297.90625 191.96875 C 297.90625 193.44075 297.86451 195.0075 297.8125 196.6875 L 299.46875 196.6875 C 299.39075 194.7475 299.375 193.17974 299.375 191.96875 L 301.0625 191.96875 L 301.25 190.4375 C 300.579 190.5095 299.966 190.53025 299.375 190.53125 C 299.375 187.08725 299.39075 184.62725 299.46875 183.15625 L 297.4375 183.15625 z M 303.9375 183.15625 C 303.9375 184.24325 303.739 186.28101 303.375 189.25 C 305.509 189.25 306.9855 189.46724 307.8125 189.90625 C 308.6385 190.34625 309.06251 191.09351 309.0625 192.1875 C 309.0625 193.1975 308.55025 194.05475 307.53125 194.71875 C 306.51225 195.38275 305.1095 195.76399 303.3125 195.875 L 303.59375 197.03125 C 305.78075 196.94725 307.5035 196.38475 308.8125 195.34375 C 310.1215 194.30275 310.78124 193.091 310.78125 191.75 C 310.78125 190.415 310.31775 189.45274 309.34375 188.84375 C 308.36975 188.23475 306.87999 187.9375 304.875 187.9375 C 304.875 186.8505 304.94901 185.68151 305.125 184.4375 C 306.935 184.4375 308.51576 184.53675 309.84375 184.71875 L 309.90625 183.15625 L 303.9375 183.15625 z M 323.75 183.15625 L 323.6875 184.78125 C 326.5445 184.61125 328.68774 184.5 330.09375 184.5 C 330.09375 185.268 329.57575 186.59975 328.59375 188.46875 C 328.48275 188.68975 327.57399 190.29326 325.875 193.28125 C 324.891 194.99325 324.40625 196.05175 324.40625 196.46875 L 326.125 196.6875 C 326.125 196.2575 326.59325 195.14076 327.53125 193.34375 C 328.88425 190.75275 329.76525 189.00399 330.15625 188.125 C 331.09925 186.01 331.56251 184.36126 331.5625 183.15625 L 323.75 183.15625 z M 454.71875 183.6875 L 447.53125 188.03125 L 447.53125 188.875 L 454.71875 193.21875 L 455.53125 192 L 449.1875 188.5625 L 449.1875 188.34375 L 455.53125 184.875 L 454.71875 183.6875 z M 462.78125 183.6875 L 461.96875 184.875 L 468.3125 188.34375 L 468.3125 188.5625 L 461.96875 192 L 462.78125 193.21875 L 469.96875 188.875 L 469.96875 188.03125 L 462.78125 183.6875 z M 50.875 183.75 C 49.507 183.75 48.436001 184.25625 47.625 185.28125 C 46.814 186.30625 46.40625 187.54975 46.40625 188.96875 C 46.40625 190.29675 46.82975 191.41876 47.71875 192.34375 C 48.60775 193.26875 49.900748 193.71875 51.59375 193.71875 C 52.79875 193.71875 53.736998 193.59774 54.375 193.34375 L 54.53125 191.96875 C 53.66525 192.20875 52.739999 192.3125 51.75 192.3125 C 50.643 192.3125 49.764749 192.01601 49.09375 191.375 C 48.42275 190.734 48.03375 189.91976 47.96875 188.96875 L 54.6875 188.875 C 54.7135 188.393 54.718748 187.99176 54.71875 187.71875 C 54.71875 186.55275 54.404001 185.617 53.75 184.875 C 53.096 184.133 52.130998 183.75001 50.875 183.75 z M 140.15625 183.75 C 138.86025 183.75 137.71 184.21225 136.75 185.15625 C 135.79 186.10025 135.3125 187.41375 135.3125 189.09375 C 135.3125 190.59775 135.756 191.76775 136.625 192.59375 C 137.494 193.41975 138.539 193.84376 139.75 193.84375 C 141.046 193.84375 142.16801 193.37151 143.125 192.4375 C 144.082 191.5035 144.5625 190.19824 144.5625 188.53125 C 144.5625 187.01425 144.115 185.837 143.25 185 C 142.385 184.163 141.36724 183.75 140.15625 183.75 z M 112.9375 183.84375 C 111.9025 183.84375 110.971 184.29026 110.125 185.15625 L 110.03125 185.15625 L 109.84375 183.96875 L 108.125 184.21875 C 108.418 185.67075 108.5625 187.15225 108.5625 188.65625 C 108.5625 189.64625 108.499 191.25575 108.375 193.46875 L 110.15625 193.46875 C 110.13025 190.73475 110.125 188.314 110.125 186.25 C 110.834 185.567 111.59225 185.25 112.40625 185.25 C 113.20025 185.25 113.764 185.41501 114.125 185.75 C 114.486 186.085 114.6875 186.7705 114.6875 187.8125 C 114.6875 189.7265 114.61175 191.61375 114.46875 193.46875 L 116.25 193.46875 C 116.211 191.31375 116.1875 189.68075 116.1875 188.59375 C 116.1875 187.83175 116.19275 187.044 116.21875 186.25 C 116.96075 185.567 117.678 185.25 118.375 185.25 C 119.201 185.25 119.79525 185.41501 120.15625 185.75 C 120.51725 186.085 120.71875 186.7705 120.71875 187.8125 C 120.71875 189.8765 120.61575 191.76375 120.46875 193.46875 L 122.25 193.46875 C 122.224 191.31375 122.21875 189.68074 122.21875 188.59375 C 122.21875 188.47075 122.236 188.239 122.25 187.875 C 122.264 187.511 122.25 187.249 122.25 187.125 C 122.25 185.908 121.96625 185.07575 121.40625 184.59375 C 120.84625 184.11175 120.0315 183.84375 118.9375 183.84375 C 117.9805 183.84375 117.01425 184.29026 116.03125 185.15625 L 115.9375 185.15625 C 115.4945 184.29025 114.4805 183.84375 112.9375 183.84375 z M 129.6875 183.84375 C 128.5875 183.84375 127.55675 184.28325 126.59375 185.15625 L 126.5 185.15625 L 126.34375 183.96875 L 124.625 184.21875 C 124.912 185.65175 125.03125 187.13325 125.03125 188.65625 C 125.03125 189.64625 124.986 191.25575 124.875 193.46875 L 126.65625 193.46875 C 126.63025 190.88475 126.625 188.47 126.625 186.25 C 127.407 185.579 128.23225 185.24999 129.15625 185.25 C 129.91125 185.25 130.50025 185.44451 130.90625 185.8125 C 131.31225 186.1805 131.53125 186.84176 131.53125 187.84375 C 131.53125 189.86775 131.4555 191.75675 131.3125 193.46875 L 133.09375 193.46875 C 133.06875 191.31375 133.0615 189.68275 133.0625 188.59375 C 133.0625 188.47075 133.0485 188.239 133.0625 187.875 C 133.0765 187.511 133.09374 187.24901 133.09375 187.125 C 133.09375 185.901 132.7805 185.04151 132.1875 184.5625 C 131.5945 184.0835 130.76849 183.84374 129.6875 183.84375 z M 151.65625 183.84375 C 150.24425 183.84375 149.1935 184.2015 148.5625 184.9375 L 148.46875 184.9375 L 148.34375 183.96875 L 146.625 184.21875 C 146.95 185.93775 147.09376 188.36201 147.09375 191.5 C 147.09375 194.045 147.025 196.17426 146.875 197.90625 L 148.71875 197.90625 C 148.67975 196.48625 148.65626 194.8725 148.65625 193.0625 L 148.75 193.0625 C 149.127 193.4925 149.92701 193.71875 151.125 193.71875 C 152.557 193.71875 153.66475 193.183 154.46875 192.125 C 155.27275 191.067 155.68749 189.8435 155.6875 188.4375 C 155.6875 187.1875 155.31575 186.09551 154.59375 185.1875 C 153.87175 184.2795 152.90026 183.84376 151.65625 183.84375 z M 162.15625 183.84375 C 160.70425 183.84375 159.6065 184.37949 158.8125 185.4375 C 158.0185 186.4955 157.59375 187.71899 157.59375 189.125 C 157.59375 190.375 157.9585 191.467 158.6875 192.375 C 159.4165 193.283 160.42626 193.71875 161.65625 193.71875 C 163.02925 193.71875 164.04875 193.33575 164.71875 192.59375 L 164.8125 192.59375 C 164.8125 194.33875 164.77775 196.12225 164.71875 197.90625 L 166.46875 197.90625 C 166.37775 195.70625 166.3135 193.28625 166.3125 190.65625 C 166.3125 188.45525 166.37774 186.2505 166.46875 184.0625 L 165.25 184.1875 L 164.84375 184.5 L 164.78125 184.5 C 164.22825 184.07 163.34125 183.84375 162.15625 183.84375 z M 173.1875 183.84375 C 172.2495 183.84375 171.42175 184.37124 170.71875 185.40625 L 170.625 185.40625 C 170.625 185.16525 170.56151 184.68475 170.4375 183.96875 L 168.75 184.21875 C 169.056 185.63175 169.18749 187.11325 169.1875 188.65625 C 169.1875 189.79525 169.13525 191.40475 169.03125 193.46875 L 170.78125 193.46875 C 170.74225 192.27775 170.71875 190.1825 170.71875 187.1875 C 171.08375 186.0225 171.86975 185.4375 173.09375 185.4375 C 173.52975 185.4375 173.992 185.548 174.5 185.75 L 174.9375 184.1875 C 174.2475 183.9725 173.6815 183.84375 173.1875 183.84375 z M 8.34375 183.875 C 7.44675 183.9275 6.6390001 184.07125 5.90625 184.28125 L 5.75 185.625 C 6.74 185.371 7.7280003 185.25 8.75 185.25 C 9.615 185.25 10.2605 185.38824 10.6875 185.65625 C 11.1145 185.92425 11.34375 186.449 11.34375 187.25 C 11.34375 187.452 11.3325 187.62525 11.3125 187.78125 C 9.0135001 187.81425 7.4407501 188.14099 6.59375 188.75 C 5.74675 189.359 5.3125001 190.15425 5.3125 191.15625 C 5.3125 191.97025 5.5840002 192.59225 6.125 193.03125 C 6.666 193.47025 7.3135001 193.71875 8.0625 193.71875 C 9.4425 193.71875 10.54275 193.354 11.34375 192.625 L 11.4375 192.625 C 11.4375 192.911 11.4845 193.21226 11.5625 193.53125 L 13.09375 193.46875 C 12.91875 192.54475 12.8135 191.46625 12.8125 190.28125 C 12.8125 190.01425 12.846 189.4915 12.875 188.6875 C 12.904 187.8835 12.90625 187.33724 12.90625 187.03125 C 12.90625 185.87925 12.60075 185.04149 11.96875 184.5625 C 11.33675 184.0835 10.44025 183.875 9.28125 183.875 C 8.964 183.875 8.64275 183.8575 8.34375 183.875 z M 31.5 183.875 C 29.957 183.875 28.687 184.372 27.75 185.375 C 26.813 186.378 26.34375 187.57575 26.34375 188.96875 C 26.34375 190.28375 26.795501 191.3815 27.6875 192.3125 C 28.5795 193.2435 29.8765 193.71875 31.5625 193.71875 C 32.4475 193.71875 33.160501 193.58024 33.6875 193.28125 L 33.78125 191.96875 C 32.91525 192.20975 32.237 192.3115 31.75 192.3125 C 30.558 192.3125 29.651 191.98424 29 191.28125 C 28.349 190.57825 27.999999 189.68 28 188.625 C 28 187.655 28.29675 186.86375 28.84375 186.21875 C 29.39075 185.57375 30.107251 185.24999 31.03125 185.25 C 31.73425 185.25 32.440999 185.371 33.125 185.625 L 33.375 184.09375 C 32.886 183.93775 32.274999 183.875 31.5 183.875 z M 179.3125 183.90625 C 178.1665 183.90625 177.31 184.1565 176.75 184.6875 C 176.19 185.2185 175.90625 185.85176 175.90625 186.59375 C 175.90625 187.30275 176.2005 187.90525 176.8125 188.40625 C 177.2295 188.74525 177.91976 189.10375 178.84375 189.46875 C 179.57275 189.75475 180.09026 190.019 180.40625 190.25 C 180.72225 190.481 180.87501 190.79651 180.875 191.1875 C 180.875 191.9945 180.169 192.40626 178.75 192.40625 C 177.76 192.40625 176.846 192.23225 176 191.90625 L 175.6875 193.34375 C 176.6185 193.55875 177.6135 193.65625 178.6875 193.65625 C 181.1165 193.65625 182.34374 192.71351 182.34375 190.8125 C 182.34375 190.0955 182.03725 189.48275 181.40625 188.96875 C 180.98325 188.63675 180.3165 188.28251 179.4375 187.9375 C 178.6235 187.6195 178.0925 187.34999 177.8125 187.125 C 177.5325 186.9 177.37499 186.615 177.375 186.25 C 177.375 185.527 177.99999 185.15625 179.25 185.15625 C 180.174 185.15625 180.9845 185.31375 181.6875 185.59375 L 182 184.1875 C 181.323 183.9985 180.4325 183.90624 179.3125 183.90625 z M 91.5 183.96875 L 89.53125 184.21875 C 89.79225 185.59175 89.937503 187.6575 89.9375 190.4375 C 89.9375 193.0285 89.826997 194.73725 89.625 195.53125 C 89.489 196.08525 89.142502 196.60574 88.5625 197.09375 L 89.03125 197.84375 C 90.63225 197.39475 91.437502 196.10301 91.4375 194 C 91.4375 193.681 91.411003 193.0765 91.375 192.1875 C 91.339 191.2985 91.343746 190.6035 91.34375 190.0625 C 91.34375 188.0315 91.389004 185.98676 91.5 183.96875 z M 87.125 184 L 85.1875 184.25 C 85.4155 185.526 85.531251 187.11899 85.53125 189 C 85.53125 190.673 85.466002 192.16675 85.375 193.46875 L 87.15625 193.46875 C 87.06525 192.05575 86.999998 190.56299 87 189 C 87 187.027 87.047001 185.36099 87.125 184 z M 193.5 184.15625 L 191.6875 184.21875 C 191.7985 185.51475 191.84375 186.668 191.84375 187.625 C 191.84375 187.794 191.8265 188.1005 191.8125 188.5625 C 191.7985 189.0245 191.8125 189.35975 191.8125 189.59375 C 191.8125 191.24075 192.05151 192.332 192.5625 192.875 C 193.0735 193.418 193.90525 193.71875 195.03125 193.71875 C 196.26825 193.71875 197.32151 193.354 198.1875 192.625 L 198.28125 192.625 C 198.28125 192.859 198.31525 193.135 198.40625 193.5 L 199.9375 193.4375 C 199.7945 192.0185 199.71874 190.63299 199.71875 189.25 C 199.71875 187.089 199.72926 185.38025 199.78125 184.15625 L 198.03125 184.21875 C 198.09625 185.47475 198.12499 187.94251 198.125 191.5625 C 197.448 192.0835 196.6045 192.34375 195.5625 192.34375 C 194.6385 192.34375 194.04524 192.02825 193.78125 191.40625 C 193.51725 190.78425 193.37501 189.426 193.375 187.375 C 193.375 186.483 193.422 185.41224 193.5 184.15625 z M 201.5625 184.1875 C 201.5625 184.4545 202.11926 185.9565 203.28125 188.6875 C 204.44325 191.4185 205.03124 193.01275 205.03125 193.46875 L 206.34375 193.46875 C 206.34375 193.11775 206.99351 191.53826 208.3125 188.78125 C 209.6315 186.02425 210.31249 184.5065 210.3125 184.1875 L 208.5 184.1875 C 208.5 184.6695 208.08525 185.94125 207.28125 188.03125 C 206.47725 190.12125 206.06251 191.326 206.0625 191.625 L 206 191.625 C 206 191.312 205.56574 190.07425 204.71875 187.90625 C 203.87175 185.73825 203.4375 184.5005 203.4375 184.1875 L 201.5625 184.1875 z M 211.15625 184.1875 C 211.15625 184.4935 211.695 186.03126 212.75 188.78125 C 213.805 191.53125 214.3125 193.09175 214.3125 193.46875 L 215.65625 193.46875 C 215.65625 193.22075 215.96351 192.26601 216.5625 190.625 C 217.3185 188.555 217.84325 186.975 218.15625 185.875 L 218.25 185.875 C 218.589 187.014 219.16175 188.6 219.96875 190.625 C 220.62575 192.272 220.9375 193.22075 220.9375 193.46875 L 222.28125 193.46875 C 222.28125 193.01875 222.82051 191.45425 223.9375 188.78125 C 225.0545 186.10825 225.625 184.5785 225.625 184.1875 L 223.96875 184.1875 C 223.96875 184.6955 223.61325 185.972 222.90625 188 C 222.19925 190.028 221.84375 191.228 221.84375 191.625 L 221.75 191.625 C 221.75 191.352 221.34525 190.13151 220.53125 187.9375 C 219.71725 185.7435 219.31251 184.4865 219.3125 184.1875 L 217.625 184.1875 C 217.625 184.5325 217.25375 185.709 216.46875 187.75 C 215.68375 189.791 215.28125 191.091 215.28125 191.625 L 215.1875 191.625 C 215.1875 191.274 214.79024 190.04125 214.03125 187.90625 C 213.27225 185.77125 212.90624 184.5255 212.90625 184.1875 L 211.15625 184.1875 z M 227.03125 184.1875 C 227.03125 184.3045 227.45251 184.9335 228.3125 186.0625 C 229.1725 187.1915 229.82 187.99375 230.25 188.46875 L 230.25 188.53125 C 229.677 189.13625 228.931 190.06951 228 191.3125 C 227.069 192.5555 226.59374 193.27975 226.59375 193.46875 L 228.5625 193.46875 C 228.5625 193.27375 228.8515 192.644 229.4375 191.625 C 230.0235 190.606 230.4805 189.8935 230.8125 189.4375 L 230.875 189.4375 C 231.35 190.0755 231.90625 190.8685 232.53125 191.8125 C 233.15625 192.7565 233.46875 193.30575 233.46875 193.46875 L 235.59375 193.46875 C 235.59375 193.31875 235.1285 192.60075 234.1875 191.34375 C 233.2465 190.08675 232.49049 189.14499 231.9375 188.5 L 231.9375 188.40625 C 232.3215 188.02125 232.96174 187.24875 233.84375 186.09375 C 234.72575 184.93875 235.15624 184.2985 235.15625 184.1875 L 233.3125 184.1875 C 233.3125 184.3575 233.04225 184.877 232.53125 185.75 C 232.02025 186.623 231.6315 187.24101 231.3125 187.625 L 231.21875 187.625 C 230.86775 187.176 230.43025 186.5335 229.90625 185.6875 C 229.38225 184.8415 229.125 184.3435 229.125 184.1875 L 227.03125 184.1875 z M 236.5625 184.1875 C 236.5625 184.2455 237.14574 185.62875 238.34375 188.34375 C 239.54175 191.05875 240.15625 192.77699 240.15625 193.5 C 240.15625 194.333 239.88375 195.00949 239.34375 195.5625 C 238.80375 196.1155 238.12649 196.40626 237.3125 196.40625 L 237.40625 197.78125 C 238.74025 197.78125 239.6665 197.4505 240.1875 196.8125 C 240.5715 196.3505 240.9885 195.26151 241.4375 193.5625 C 241.7115 192.5145 242.40524 190.71525 243.53125 188.15625 C 244.51425 185.91725 245 184.6045 245 184.1875 L 243.21875 184.1875 C 243.21875 184.7735 242.8805 186.06174 242.1875 188.09375 C 241.4945 190.12575 241.15625 191.35825 241.15625 191.78125 L 241.03125 191.78125 C 241.03125 191.27325 240.6325 189.944 239.8125 187.75 C 238.9925 185.556 238.59375 184.3635 238.59375 184.1875 L 236.5625 184.1875 z M 246.5 184.1875 L 246.4375 185.71875 C 247.6615 185.63375 249.34751 185.59375 251.4375 185.59375 L 251.4375 185.6875 C 251.4375 185.9155 250.66799 186.96275 249.125 188.84375 C 247.706 190.56875 246.81375 191.6055 246.46875 191.9375 L 246.40625 193.46875 L 253.53125 193.46875 L 253.5625 191.875 C 252.1035 191.979 250.40651 192.03125 248.4375 192.03125 L 248.4375 191.96875 C 248.4375 191.71475 249.167 190.6545 250.625 188.8125 C 251.797 187.3345 252.6465 186.31075 253.1875 185.71875 L 253.28125 184.1875 L 246.5 184.1875 z M 259.9375 184.34375 C 260.7975 184.33075 261.48076 184.725 261.96875 185.5 C 262.45675 186.275 262.71874 187.31075 262.71875 188.59375 C 262.71875 189.79175 262.45476 190.72824 261.96875 191.40625 C 261.48375 192.08425 260.88 192.40625 260.125 192.40625 C 259.266 192.41925 258.58174 192.05624 258.09375 191.28125 C 257.60575 190.50625 257.37499 189.47051 257.375 188.1875 C 257.375 187.1065 257.58226 186.20475 258.03125 185.46875 C 258.48025 184.73275 259.11051 184.34375 259.9375 184.34375 z M 348.75 184.375 C 349.505 184.375 350.16476 184.748 350.71875 185.5 C 351.27175 186.252 351.56249 187.384 351.5625 188.875 C 351.0345 189.78 350.27024 190.249 349.28125 190.25 C 348.34925 190.25 347.61474 189.93151 347.09375 189.3125 C 346.57275 188.6935 346.3125 187.98325 346.3125 187.15625 C 346.3125 186.40125 346.53576 185.7285 346.96875 185.1875 C 347.40175 184.6465 347.98799 184.375 348.75 184.375 z M 297.90625 184.53125 L 298 184.53125 C 297.942 186.49725 297.889 188.51226 297.875 190.53125 C 296.24 190.57625 294.86476 190.59375 293.71875 190.59375 L 293.71875 190.5 C 293.71875 190.396 294.4125 189.44274 295.8125 187.59375 C 297.2125 185.74475 297.90625 184.70725 297.90625 184.53125 z M 67.4375 184.90625 C 68.1345 184.90625 68.70325 185.08776 69.15625 185.46875 C 69.60925 185.84975 69.84375 186.40899 69.84375 187.125 C 69.84375 187.789 69.627504 188.29525 69.1875 188.65625 C 68.7475 189.01725 68.182248 189.18751 67.53125 189.1875 C 66.82225 189.1875 66.234252 189.02725 65.78125 188.65625 C 65.32825 188.28525 65.125002 187.74025 65.125 187.03125 C 65.125 186.35425 65.339251 185.83675 65.78125 185.46875 C 66.22325 185.10075 66.779499 184.90625 67.4375 184.90625 z M 139.9375 184.96875 C 140.8815 184.96875 141.58174 185.36525 142.09375 186.15625 C 142.60575 186.94725 142.875 187.859 142.875 188.875 C 142.875 189.858 142.626 190.71674 142.125 191.46875 C 141.624 192.22075 140.90676 192.59375 139.96875 192.59375 C 139.01875 192.59375 138.29324 192.22549 137.78125 191.4375 C 137.26925 190.6495 137.00001 189.74076 137 188.71875 C 137 187.72975 137.246 186.84175 137.75 186.09375 C 138.254 185.34575 138.99949 184.96875 139.9375 184.96875 z M 50.8125 185 C 52.3425 185 53.093749 185.91999 53.09375 187.75 L 48.03125 187.84375 C 48.31125 185.94275 49.249501 185 50.8125 185 z M 40.40625 185.03125 C 41.19425 185.03125 41.879248 185.25149 42.40625 185.6875 C 42.51725 187.5625 42.562502 189.50625 42.5625 191.53125 C 42.0485 192.11125 41.215501 192.40626 40.0625 192.40625 C 39.1445 192.40625 38.423251 192.052 37.90625 191.375 C 37.38925 190.698 37.124998 189.865 37.125 188.875 C 37.125 187.768 37.390499 186.858 37.9375 186.125 C 38.4845 185.392 39.306252 185.03125 40.40625 185.03125 z M 162.5625 185.03125 C 163.4085 185.03125 164.11375 185.2385 164.71875 185.6875 C 164.77775 187.2895 164.8125 189.1645 164.8125 191.3125 C 164.2715 192.0295 163.421 192.40725 162.25 192.40625 C 161.332 192.40625 160.60175 192.03275 160.09375 191.34375 C 159.58575 190.65475 159.34375 189.838 159.34375 188.875 C 159.34375 187.814 159.62526 186.91225 160.15625 186.15625 C 160.68725 185.40025 161.48849 185.03125 162.5625 185.03125 z M 19.78125 185.15625 C 20.68625 185.15625 21.392249 185.51051 21.90625 186.1875 C 22.42025 186.8645 22.687499 187.7045 22.6875 188.6875 C 22.6875 189.7615 22.408 190.65826 21.875 191.40625 C 21.342 192.15425 20.53675 192.53126 19.46875 192.53125 C 18.62175 192.53125 17.964499 192.31801 17.4375 191.875 C 17.3335 190.436 17.28125 188.53675 17.28125 186.21875 C 17.78925 185.50975 18.609249 185.15625 19.78125 185.15625 z M 151.03125 185.15625 C 151.94925 185.15625 152.67949 185.5005 153.1875 186.1875 C 153.6955 186.8745 153.9375 187.7245 153.9375 188.6875 C 153.9375 189.7485 153.656 190.65025 153.125 191.40625 C 152.594 192.16225 151.79275 192.53126 150.71875 192.53125 C 149.87175 192.53125 149.18325 192.31801 148.65625 191.875 C 148.65625 190.306 148.60401 188.40675 148.5 186.21875 C 149.008 185.50975 149.85925 185.15625 151.03125 185.15625 z M 317.09375 186.75 C 318.08275 186.75 318.86399 187.05724 319.375 187.65625 C 319.886 188.25525 320.12499 188.9795 320.125 189.8125 C 320.125 190.5805 319.90649 191.22426 319.4375 191.78125 C 318.9685 192.33825 318.32001 192.625 317.5 192.625 C 316.739 192.625 316.09875 192.239 315.59375 191.5 C 315.08875 190.761 314.84374 189.57925 314.84375 187.90625 C 315.42975 187.14425 316.16174 186.75 317.09375 186.75 z M 337.625 186.8125 C 339.642 187.7955 340.65625 188.86975 340.65625 190.09375 C 340.65625 190.79075 340.40499 191.34699 339.875 191.75 C 339.345 192.153 338.72299 192.375 338 192.375 C 337.244 192.375 336.57524 192.1395 336.03125 191.6875 C 335.48725 191.2355 335.21874 190.59 335.21875 189.75 C 335.21875 189.112 335.45426 188.51275 335.90625 187.96875 C 336.35825 187.42475 336.92201 187.05351 337.625 186.8125 z M 11.3125 188.90625 C 11.3125 189.69425 11.31075 190.5725 11.34375 191.5625 C 10.70575 192.0965 9.85625 192.376 8.78125 192.375 C 7.53125 192.375 6.90625 191.91625 6.90625 191.03125 C 6.90625 190.11325 7.4632498 189.48226 8.53125 189.15625 C 9.16925 188.97425 10.0885 188.90625 11.3125 188.90625 z M 478.40625 190.78125 C 477.94325 190.78125 477.57249 190.9045 477.3125 191.1875 C 477.0515 191.4705 476.93751 191.8105 476.9375 192.1875 C 476.9375 192.5385 477.03799 192.83975 477.25 193.09375 C 477.462 193.34775 477.77126 193.46875 478.15625 193.46875 C 478.61125 193.46875 478.96176 193.32424 479.21875 193.03125 C 479.47575 192.73825 479.59374 192.41525 479.59375 192.03125 C 479.59375 191.68025 479.48625 191.36499 479.28125 191.125 C 479.07625 190.885 478.79025 190.78125 478.40625 190.78125 z M 65.71875 193.3125 C 66.40875 193.3905 67.167004 193.4375 68 193.4375 C 69.231 193.4375 70.085247 193.56149 70.53125 193.8125 C 70.97725 194.0635 71.187498 194.48175 71.1875 195.09375 C 71.1875 195.77175 70.885001 196.32599 70.25 196.75 C 69.615 197.174 68.743251 197.40625 67.65625 197.40625 C 65.57325 197.40625 64.531252 196.58799 64.53125 195 C 64.53125 194.258 64.92475 193.6965 65.71875 193.3125 z "
   transform="translate(-8.330271e-6,0)"
   id="path83" />
	
	
	
	
	
	
	
	
	
	
	
	
	
	
	
	
	
	
	
	
	
	
	
	
	
	
	
	
	
	
	
	
	
	
	
	
	
	
	
	
	
	
	
	
	
	
</g>
</svg>